<?xml version="1.0" encoding="UTF-8"?>
<svg width="960px" height="960px" viewBox="0 0 960 960" version="1.1" xmlns="http://www.w3.org/2000/svg" xmlns:xlink="http://www.w3.org/1999/xlink">
    <title>ipcamera</title>
    <g id="ipcamera" stroke="none" stroke-width="1" fill="none" fill-rule="evenodd">
        <path d="M480,1 C713.084168,1 902,190.337813 902,423.853273 C902,569.857047 827.488712,702.798076 708.023667,779.725313 L706.216,780.875 L711.051257,885.630758 L710.938372,887.661997 C710.354824,898.162264 706.106114,907.301448 699.686372,914.418397 C695.772559,918.757263 691.422532,921.994324 686.659982,924.61062 L685.985,924.975 L685.902236,925.068067 C682.587739,928.757114 678.674498,932.047374 674.251039,934.863875 L673.775149,935.163827 C663.70577,941.446343 650.769002,945.665091 633.335537,948.936859 C598.269791,955.517708 539.551733,959 450.463918,959 L445.155428,959 C359.039541,958.859457 301.764624,955.385903 267.162032,948.948445 C249.694841,945.698852 236.715971,941.521919 226.627316,935.352433 C222.007033,932.527005 217.907302,929.193847 214.435245,925.427794 L214.305,925.285 L213.887533,925.065242 L213.22804,924.707573 C208.080539,921.873721 203.416631,918.325345 199.306411,913.469575 C192.899205,905.900173 188.943299,896.235469 188.943299,885.442438 L188.943299,884.980214 L192.448,733.344 L190.476609,731.49837 C107.617006,653.219559 59.0406882,544.389686 58.016527,427.622676 L58,423.853273 C58,190.337813 246.915832,1 480,1 Z M232.284873,740.841301 L228.943299,885.442438 L228.943299,885.526037 C229.188469,886.01031 229.39297,886.517024 229.555359,887.042233 L229.625,887.281 L229.719787,887.352313 C230.442127,887.887887 231.563528,888.556125 233.084951,889.293169 L233.417093,889.452137 C239.814823,892.477787 250.446325,895.493322 265.357961,898.179186 C303.448627,905.040024 364.416921,909 450.484979,909 L455.616933,908.995261 C538.089533,908.84216 596.619184,904.986266 633.468829,898.388719 L634.601599,898.183798 C649.244622,895.507243 659.610904,892.505806 665.792137,889.499417 C666.980614,888.921373 667.953357,888.370037 668.7101,887.8617 C668.896388,887.736562 669.062608,887.618857 669.209057,887.509708 L669.339,887.411 L669.369143,887.298601 C669.697503,886.12552 670.234429,885.039565 670.937411,884.083244 L666.162656,780.613382 C634.81545,796.107094 576.898467,805.795393 512.824689,803.713377 C387.72801,799.64848 288.207174,781.067228 248.016206,752.57464 C242.665045,748.781041 237.420293,744.868385 232.284873,740.841301 Z M469.220407,41.1501581 L467.390617,41.2046401 C355.724458,44.8342374 256.17226,96.4965075 188.634287,176.246734 L188.753842,176.325207 C117.38203,287.456251 126.703377,452.973717 215.897854,590.321169 C284.383532,695.779865 387.871978,766.198165 493.888656,782.892487 L493.87667,782.955255 C500.332902,783.252665 506.867396,783.509244 513.474227,783.723927 C584.177972,786.021377 637.026556,773.572953 659.618965,761.492817 C734.02092,721.710176 793.73777,657.982417 828.515818,580.581357 C811.188953,607.049541 788.807095,629.870841 761.503056,647.602291 C633.129638,730.968963 446.226295,669.173132 343.535392,511.043009 C240.844489,352.912886 260.411627,157.033557 388.785045,73.6668847 C413.735225,57.4640486 440.896335,46.7446335 469.220407,41.1501581 Z M128.984785,272.580011 L128.019454,274.829502 C108.882504,320.175395 98.2146481,369.985546 98.0032047,422.268196 L98,423.674977 C98,552.780034 161.821283,666.952494 259.583035,736.258744 C283.102555,752.93244 332.576323,766.400617 397.824896,774.831739 C320.835167,740.594397 250.469343,680.278162 199.124443,601.213949 C131.227879,496.66241 107.566485,376.040456 128.984785,272.580011 Z M399.677826,90.4402961 C281.487084,167.194262 263.16915,350.568279 360.308803,500.150229 C457.448457,649.732178 632.419533,707.582845 750.610275,630.828879 C868.801018,554.074914 887.118952,370.700896 789.979298,221.118947 C692.839644,71.5369972 517.868569,13.6863305 399.677826,90.4402961 Z M783.512047,225.318828 C875.855188,367.514795 858.348223,542.770501 744.409147,616.763402 C630.470071,690.756303 463.245294,635.466794 370.902153,493.270827 C278.559012,351.07486 296.065977,175.819155 410.005053,101.826253 C523.944129,27.8333523 691.168907,83.1228613 783.512047,225.318828 Z M529.597555,249.052741 C484.517984,278.327757 477.749111,346.088425 512.933626,400.267827 C548.118141,454.447229 612.77374,475.824302 657.853311,446.549286 C702.932883,417.27427 709.701756,349.513603 674.51724,295.334201 C639.332725,241.154798 574.677126,219.777725 529.597555,249.052741 Z M657.743829,306.226981 C687.377095,351.85821 681.857426,407.113566 646.96053,429.775875 C612.063635,452.438184 559.340303,435.006275 529.707037,389.375046 C500.073771,343.743818 505.59344,288.488461 540.490336,265.826152 C575.387231,243.163844 628.110563,260.595753 657.743829,306.226981 Z M556.883155,289.731278 C531.360802,306.305688 527.439241,345.562966 548.124105,377.414862 C568.808968,409.266759 606.267319,421.651609 631.789672,405.077199 C657.312025,388.502789 661.233585,349.245511 640.548721,317.393615 C619.863858,285.541718 582.405508,273.156868 556.883155,289.731278 Z" id="Shape" fill="#000000" fill-rule="nonzero"></path>
    </g>
</svg>