<?xml version="1.0" encoding="UTF-8"?>
<svg version="1.1" xmlns="http://www.w3.org/2000/svg" width="1024" height="1024">
<path d="M0 0 C337.92 0 675.84 0 1024 0 C1024 337.92 1024 675.84 1024 1024 C686.08 1024 348.16 1024 0 1024 C0 686.08 0 348.16 0 0 Z M389 208 C382.15637182 221.31509531 375.87775279 234.88487688 369.625 248.48535156 C368.06926958 251.85017956 366.49138793 255.20363237 364.90625 258.5546875 C363.9789722 260.53636735 363.05187813 262.51813319 362.125 264.5 C361.69010254 265.4070166 361.25520508 266.3140332 360.80712891 267.24853516 C360.41960449 268.08433105 360.03208008 268.92012695 359.6328125 269.78125 C359.29137207 270.50376953 358.94993164 271.22628906 358.59814453 271.97070312 C357.85258138 274.50014023 357.86965688 275.6096272 359 278 C361.129889 279.59417248 361.129889 279.59417248 363.87109375 280.890625 C364.9079834 281.4273584 365.94487305 281.9640918 367.01318359 282.51708984 C368.14320801 283.0889502 369.27323242 283.66081055 370.4375 284.25 C372.8174273 285.49111106 375.19433848 286.73628177 377.56640625 287.9921875 C378.17810669 288.31567169 378.78980713 288.63915588 379.42004395 288.97244263 C386.06359772 292.51689572 392.47640771 296.40930582 398.875 300.375 C399.91197021 301.01598633 400.94894043 301.65697266 402.01733398 302.31738281 C409.1072529 306.73739818 416.07313901 311.32935218 423 316 C423.70511719 316.4738916 424.41023438 316.9477832 425.13671875 317.43603516 C444.83942458 330.72402635 463.87079009 344.94881044 481.9296875 360.3984375 C484.67734045 362.74257701 487.48800228 364.99883316 490.3125 367.25 C496.52328374 372.3019203 502.28720845 377.80802493 508.09375 383.3125 C511.33316578 386.38273932 514.62191757 389.38733232 517.9375 392.375 C523.0223524 397.02102267 527.93361835 401.82596969 532.8125 406.6875 C533.51818115 407.38858887 534.2238623 408.08967773 534.95092773 408.81201172 C538.91532441 412.78810554 542.69659325 416.86601181 546.36303711 421.11791992 C548.79665015 423.91593974 551.3384323 426.6081936 553.875 429.3125 C558.35420159 434.12755443 562.6076977 439.06531844 566.7265625 444.1953125 C568.79159771 446.7428989 570.89933152 449.24252565 573.03222656 451.73291016 C578.44007036 458.05208274 583.62632843 464.51330646 588.62060547 471.16552734 C589.56885079 472.42660971 590.52123655 473.68458605 591.47705078 474.93994141 C613.05060825 503.30129321 632.14773011 533.61900077 649 565 C649.44875488 565.83047852 649.89750977 566.66095703 650.35986328 567.51660156 C669.26528162 602.63314087 684.58073468 639.11323572 697 677 C697.36544922 678.10633789 697.73089844 679.21267578 698.10742188 680.35253906 C705.24517252 702.11834888 711.6889897 724.47497119 716 747 C724.04817272 746.37990205 731.6148085 744.47648062 739.40625 742.4375 C740.78093231 742.08215866 742.15573098 741.7272672 743.53063965 741.37280273 C746.39253824 740.63358204 749.25331287 739.89020753 752.11328125 739.14355469 C755.78473146 738.18522381 759.45836124 737.23558193 763.13278961 736.28874207 C765.96267338 735.55887316 768.79162868 734.82546091 771.62028503 734.09085083 C772.9756959 733.73910978 774.33133753 733.3882567 775.68721008 733.03829956 C777.57167155 732.55114166 779.45481794 732.05890507 781.33789062 731.56640625 C782.40994751 731.28740479 783.48200439 731.00840332 784.58654785 730.72094727 C786.92899397 730.22938387 786.92899397 730.22938387 788 729 C787.51902432 720.41788499 785.28049116 712.1767189 783.1875 703.875 C782.99325439 703.09965912 782.79900879 702.32431824 782.59887695 701.52548218 C766.02670494 635.70930507 740.48887392 571.51666868 706.55810547 512.70605469 C705.10205073 510.17723758 703.66008367 507.64100036 702.22265625 505.1015625 C692.03133667 487.17735569 680.87810849 469.85044575 669 453 C668.58830566 452.41347656 668.17661133 451.82695312 667.75244141 451.22265625 C655.12969407 433.26586083 641.87127635 415.75170182 627.6015625 399.0703125 C625.25742299 396.32265955 623.00116684 393.51199772 620.75 390.6875 C616.30646967 385.22099866 611.51697547 380.11239653 606.66699219 375.00854492 C603.36213844 371.53065986 600.119792 368.01600677 596.94140625 364.421875 C591.30874271 358.13901165 585.34502532 352.19490829 579.37036133 346.23999023 C577.43389451 344.30890453 575.50286044 342.37250118 573.57226562 340.43554688 C568.06354302 334.92385795 562.57806241 329.43961336 556.63549805 324.39038086 C554.07706189 322.2153855 551.64458756 319.91369974 549.1875 317.625 C544.56219047 313.35160029 539.79918099 309.31116271 534.890625 305.36328125 C532.25305306 303.20688797 529.67761103 300.99826048 527.11010742 298.76000977 C519.38829248 292.03995554 511.37884435 285.77238253 503.18457031 279.64013672 C501.10055451 278.07549455 499.0300624 276.49440851 496.9609375 274.91015625 C472.86609253 256.63722433 447.19264571 240.08472397 421 225 C419.96439941 224.40058594 418.92879883 223.80117187 417.86181641 223.18359375 C414.74617094 221.38439802 411.62500699 219.59538073 408.5 217.8125 C407.57405029 217.28309814 406.64810059 216.75369629 405.6940918 216.20825195 C400.25312031 213.14081511 394.76090393 210.41532404 389 208 Z M328 336 C326.75516835 338.6848773 325.51037939 341.36977438 324.265625 344.0546875 C323.68096214 345.31576073 323.68096214 345.31576073 323.08448792 346.60231018 C320.93523695 351.23844938 318.78670014 355.87491779 316.6394043 360.51196289 C315.76872645 362.39209401 314.89803962 364.27222097 314.02734375 366.15234375 C313.37973335 367.55079277 313.37973335 367.55079277 312.71903992 368.97749329 C310.47496378 373.82174204 308.22696266 378.66410508 305.97042847 383.50256348 C305.10312675 385.36265234 304.23730435 387.22342125 303.37207031 389.08447266 C302.35229546 391.27695667 301.32962706 393.46809775 300.30371094 395.65771484 C299.85930664 396.61500488 299.41490234 397.57229492 298.95703125 398.55859375 C298.38432495 399.78533813 298.38432495 399.78533813 297.80004883 401.03686523 C296.87420023 402.95536687 296.87420023 402.95536687 297 405 C297.92558716 405.48859497 297.92558716 405.48859497 298.86987305 405.98706055 C313.60319817 413.79282276 327.97040576 421.98819757 342 431 C342.59167969 431.37962891 343.18335938 431.75925781 343.79296875 432.15039062 C382.47498325 457.12655554 421.52241317 487.75048542 451.33984375 523.05859375 C453.45702462 525.53444997 455.66781829 527.91661268 457.875 530.3125 C462.7919433 535.71670795 467.46088689 541.27662579 472 547 C472.51578613 547.64855957 473.03157227 548.29711914 473.56298828 548.96533203 C482.09165755 559.72037064 490.22684535 570.68775734 498 582 C498.41137207 582.59248535 498.82274414 583.1849707 499.24658203 583.79541016 C540.3415384 643.09507952 567.18430537 709.92178308 583 780 C590.69554065 779.31023085 598.0255005 777.35602093 605.4921875 775.4375 C606.88834697 775.08224332 608.284599 774.72735024 609.68093872 774.37280273 C612.5914516 773.63271515 615.50111689 772.88941274 618.41015625 772.14355469 C622.1414168 771.18698903 625.87426217 770.23679121 629.60769463 769.28874207 C632.48371008 768.55800716 635.35910272 767.82484764 638.23428726 767.09085083 C639.61129071 766.73944973 640.98843413 766.38859664 642.36571884 766.03829956 C644.28330877 765.5500049 646.20002665 765.05828945 648.11669922 764.56640625 C649.20731659 764.28740479 650.29793396 764.00840332 651.42160034 763.72094727 C653.95980418 763.09919835 653.95980418 763.09919835 656 762 C655.3852221 753.66838305 653.34203614 745.79043125 651.1875 737.75 C650.99258972 737.01779236 650.79767944 736.28558472 650.59686279 735.53118896 C635.62318232 679.54585165 613.59248623 625.27763688 583.58740234 575.62792969 C582.11423708 573.18911842 580.65839791 570.74088579 579.20703125 568.2890625 C561.79510947 539.08598797 541.32167389 511.61890642 519 486 C518.34128906 485.23945313 517.68257812 484.47890625 517.00390625 483.6953125 C494.78484767 458.0896054 494.78484767 458.0896054 470.14453125 434.86328125 C467.83797899 432.85922765 465.60736907 430.78702508 463.375 428.70117188 C457.99998133 423.68075513 452.53303965 418.87093441 446.79296875 414.265625 C444.29716204 412.24105453 441.85276003 410.1671988 439.41894531 408.06884766 C410.53833585 383.23503484 377.62976485 362.27672959 344.4375 343.75 C343.84438019 343.41745209 343.25126038 343.08490417 342.64016724 342.74227905 C340.94943471 341.79653538 339.25409775 340.85903761 337.55859375 339.921875 C336.09377563 339.11121582 336.09377563 339.11121582 334.59936523 338.28417969 C332.33662438 337.16630452 330.43533313 336.55628934 328 336 Z M267 469 C259.05536698 485.25675353 251.37476593 501.61007907 243.93920898 518.10522461 C243.63177261 518.78654449 243.32433624 519.46786438 243.00758362 520.16983032 C242.17398798 522.01856039 241.34253081 523.86825427 240.51123047 525.71801758 C239 529 239 529 237.24267578 532.1784668 C235.84627986 534.81959018 235.84627986 534.81959018 236.02929688 537.18554688 C237.39711692 539.74229701 239.02576927 540.58950635 241.53125 542.03125 C242.95256226 542.86692505 242.95256226 542.86692505 244.40258789 543.71948242 C245.93580688 544.60083862 245.93580688 544.60083862 247.5 545.5 C262.28304882 554.24639912 276.07024071 563.96458642 289.43603516 574.74023438 C290.90358785 575.92234051 292.37925762 577.09434941 293.85546875 578.265625 C300.06925794 583.25100276 305.94233523 588.53523166 311.75390625 593.9765625 C313.80307451 595.89495866 315.870711 597.77778928 317.96484375 599.6484375 C329.0942789 609.59770436 339.43386029 620.44746659 348.72265625 632.140625 C350.41271394 634.26261853 352.12375222 636.34815728 353.87109375 638.421875 C396.80884582 689.68743555 422.95249655 751.41420207 438 816 C446.90989182 814.67644304 455.57040756 812.74107203 464.296875 810.5234375 C465.62483457 810.18957675 466.95290067 809.85613949 468.28106689 809.52310181 C471.73434418 808.65600983 475.18616835 807.78327003 478.63769531 806.90924072 C482.17685457 806.01412223 485.71739423 805.1244981 489.2578125 804.234375 C496.1732157 802.49487981 503.08709486 800.74939882 510 799 C508.60727958 790.28834804 506.8485729 781.83544578 504.5625 773.3125 C504.3921524 772.67671021 504.22180481 772.04092041 504.04629517 771.38586426 C488.82313065 714.91112063 464.11494749 659.96860759 429 613 C428.01271708 611.66298466 427.02575404 610.32573308 426.0390625 608.98828125 C420.23249153 601.15009896 414.28985707 593.45932798 408 586 C407.55188965 585.46697266 407.1037793 584.93394531 406.64208984 584.38476562 C395.86876732 571.59531878 384.55383943 559.46654199 372.75 547.625 C372.2781427 547.15046387 371.8062854 546.67592773 371.32012939 546.18701172 C365.72289548 540.56568222 360.03949774 535.14233191 354 530 C352.91676439 529.05085191 351.83468308 528.10038441 350.75390625 527.1484375 C341.81021657 519.34791575 332.50488189 512.10142521 323 505 C322.34854004 504.51112305 321.69708008 504.02224609 321.02587891 503.51855469 C308.9166277 494.44820926 296.4484225 486.0523462 283.5625 478.125 C282.82926514 477.67253906 282.09603027 477.22007812 281.34057617 476.75390625 C276.66859548 473.90921506 271.92234606 471.3862557 267 469 Z " fill="#000000" transform="translate(0,0)"/>
</svg>
